<?xml version="1.0" encoding="UTF-8" standalone="no"?>
<svg width="145px" height="33px" viewBox="0 0 145 33" version="1.1" xmlns="http://www.w3.org/2000/svg" xmlns:xlink="http://www.w3.org/1999/xlink">
    <!-- Generator: Sketch 49 (51002) - http://www.bohemiancoding.com/sketch -->
    <title>Group Copy</title>
    <desc>Created with Sketch.</desc>
    <defs></defs>
    <g id="Logo" stroke="none" stroke-width="1" fill="none" fill-rule="evenodd">
        <g id="Group-Copy" transform="translate(2.000000, 0.000000)">
            <g id="Group-2">
                <path d="M11.370566,2 L0,30.8543396 L10.2701887,30.8543396 L11.6966038,26.6158491 L20.8664151,26.6158491 L22.3743396,30.8543396 L32.9298113,30.8543396 L21.6815094,2 L11.370566,2 Z M16.3833962,12.0664151 L18.7064151,19.1984906 L14.0196226,19.1984906 L16.3833962,12.0664151 Z" id="Fill-1" stroke="#FFFFFF" stroke-width="2"></path>
                <polygon id="Fill-2" stroke="#FFFFFF" stroke-width="2" points="43.5384663 2 43.5384663 30.8543396 62.8969569 30.8543396 62.8969569 22.4996226 53.3195984 22.4996226 53.3195984 2"></polygon>
                <polygon id="Fill-3" stroke="#FFFFFF" stroke-width="2" points="74.4842345 2 74.4842345 30.8543396 93.8427251 30.8543396 93.8427251 22.4996226 84.2653666 22.4996226 84.2653666 2"></polygon>
                <path d="M117.412116,31.669434 C115.156456,31.669434 113.194003,31.3569811 111.523059,30.7320755 C109.852116,30.1071698 108.459663,29.2518868 107.345701,28.1645283 C106.231173,27.0783019 105.403059,25.7945283 104.859663,24.3132075 C104.315701,22.8330189 104.044569,21.2362264 104.044569,19.5245283 L104.044569,2 L113.744191,2 L113.744191,18.4649057 C113.744191,19.850566 114.076456,20.930566 114.742682,21.7049057 C115.407776,22.4792453 116.352493,22.8664151 117.575135,22.8664151 C118.797776,22.8664151 119.741361,22.4792453 120.407588,21.7049057 C121.073248,20.930566 121.406078,19.850566 121.406078,18.4649057 L121.406078,2 L131.064946,2 L131.064946,19.5245283 C131.064946,21.2362264 130.772871,22.8330189 130.18872,24.3132075 C129.604003,25.7945283 128.741927,27.0783019 127.600795,28.1645283 C126.459663,29.2518868 125.039474,30.1071698 123.341927,30.7320755 C121.643814,31.3569811 119.66721,31.669434 117.412116,31.669434" id="Fill-4" stroke="#FFFFFF" stroke-width="2"></path>
                <path d="M129.252,13.744 L127.612,13.744 L127.612,18.5 L126.26,18.5 L126.26,13.744 L124.62,13.744 L124.62,12.672 L129.252,12.672 L129.252,13.744 Z M133.736,13.712 L133.736,15.072 L135.568,15.072 L135.568,16.072 L133.736,16.072 L133.736,17.46 L136.128,17.46 L136.128,18.5 L132.376,18.5 L132.376,12.672 L136.128,12.672 L136.128,13.712 L133.736,13.712 Z M142.62,13.856 C142.58,13.9200003 142.538,13.9679998 142.494,14 C142.45,14.0320002 142.393334,14.048 142.324,14.048 C142.262666,14.048 142.196667,14.0286669 142.126,13.99 C142.055333,13.9513331 141.975334,13.9080002 141.886,13.86 C141.796666,13.8119998 141.694667,13.7686669 141.58,13.73 C141.465333,13.6913331 141.334668,13.672 141.188,13.672 C140.934666,13.672 140.746001,13.7259995 140.622,13.834 C140.497999,13.9420005 140.436,14.0879991 140.436,14.272 C140.436,14.3893339 140.473333,14.4866663 140.548,14.564 C140.622667,14.6413337 140.720666,14.7079997 140.842,14.764 C140.963334,14.8200003 141.101999,14.8713331 141.258,14.918 C141.414001,14.9646669 141.573333,15.0166664 141.736,15.074 C141.898668,15.1313336 142.057999,15.1986663 142.214,15.276 C142.370001,15.3533337 142.508666,15.4519994 142.63,15.572 C142.751334,15.6920006 142.849333,15.8379991 142.924,16.01 C142.998667,16.1820009 143.036,16.3893321 143.036,16.632 C143.036,16.9013347 142.989334,17.1533322 142.896,17.388 C142.802666,17.6226678 142.667334,17.8273325 142.49,18.002 C142.312666,18.1766675 142.094001,18.3139995 141.834,18.414 C141.573999,18.5140005 141.278668,18.564 140.948,18.564 C140.766666,18.564 140.582001,18.5453335 140.394,18.508 C140.205999,18.4706665 140.024001,18.4180003 139.848,18.35 C139.671999,18.2819997 139.506668,18.2013338 139.352,18.108 C139.197333,18.0146662 139.062667,17.9106672 138.948,17.796 L139.348,17.164 C139.38,17.1186664 139.422,17.0806668 139.474,17.05 C139.526,17.0193332 139.582666,17.004 139.644,17.004 C139.724001,17.004 139.804666,17.0293331 139.886,17.08 C139.967334,17.1306669 140.059333,17.1866664 140.162,17.248 C140.264667,17.3093336 140.382666,17.3653331 140.516,17.416 C140.649334,17.4666669 140.806666,17.492 140.988,17.492 C141.233335,17.492 141.423999,17.4380005 141.56,17.33 C141.696001,17.2219995 141.764,17.0506678 141.764,16.816 C141.764,16.6799993 141.726667,16.5693338 141.652,16.484 C141.577333,16.3986662 141.479334,16.3280003 141.358,16.272 C141.236666,16.2159997 141.098668,16.1666669 140.944,16.124 C140.789333,16.0813331 140.630668,16.0340003 140.468,15.982 C140.305333,15.9299997 140.146668,15.8660004 139.992,15.79 C139.837333,15.7139996 139.699334,15.6140006 139.578,15.49 C139.456666,15.3659994 139.358667,15.2113343 139.284,15.026 C139.209333,14.8406657 139.172,14.6120014 139.172,14.34 C139.172,14.1213322 139.216,13.908001 139.304,13.7 C139.392001,13.491999 139.521333,13.3066675 139.692,13.144 C139.862668,12.9813325 140.071999,12.8513338 140.32,12.754 C140.568001,12.6566662 140.851999,12.608 141.172,12.608 C141.350668,12.608 141.524666,12.6219999 141.694,12.65 C141.863334,12.6780001 142.023999,12.7193331 142.176,12.774 C142.328001,12.8286669 142.469999,12.8939996 142.602,12.97 C142.734001,13.0460004 142.852,13.1319995 142.956,13.228 L142.62,13.856 Z M149.46,13.744 L147.82,13.744 L147.82,18.5 L146.468,18.5 L146.468,13.744 L144.828,13.744 L144.828,12.672 L149.46,12.672 L149.46,13.744 Z M153.944,18.5 L152.584,18.5 L152.584,12.672 L153.944,12.672 L153.944,18.5 Z" id="TESTI-Copy-9" fill="#FFFFFF" transform="translate(139.282000, 15.586000) rotate(90.000000) translate(-139.282000, -15.586000) "></path>
            </g>
        </g>
    </g>
</svg>