<?xml version="1.0" encoding="UTF-8" standalone="no"?>
<svg width="135px" height="32px" viewBox="0 0 135 32" version="1.1" xmlns="http://www.w3.org/2000/svg" xmlns:xlink="http://www.w3.org/1999/xlink">
    <!-- Generator: sketchtool 41.2 (35397) - http://www.bohemiancoding.com/sketch -->
    <title>69F33577-3DF8-4D6D-B629-8D46FBBAA68E</title>
    <desc>Created with sketchtool.</desc>
    <defs></defs>
    <g id="Page-2" stroke="none" stroke-width="1" fill="none" fill-rule="evenodd">
        <g id="Hakemus---päätös" transform="translate(-21.000000, -15.000000)">
            <rect id="Rectangle-1" fill="#006CC6" x="0" y="0" width="1440" height="60"></rect>
            <g id="Group-2" transform="translate(23.000000, 16.000000)" stroke="#FFFFFF" stroke-width="2">
                <path d="M11.370566,0 L0,28.8543396 L10.2701887,28.8543396 L11.6966038,24.6158491 L20.8664151,24.6158491 L22.3743396,28.8543396 L32.9298113,28.8543396 L21.6815094,0 L11.370566,0 Z M16.3833962,10.0664151 L18.7064151,17.1984906 L14.0196226,17.1984906 L16.3833962,10.0664151 Z" id="Fill-1"></path>
                <polygon id="Fill-2" points="43.5384663 0 43.5384663 28.8543396 62.8969569 28.8543396 62.8969569 20.4996226 53.3195984 20.4996226 53.3195984 0"></polygon>
                <polygon id="Fill-3" points="74.4842345 0 74.4842345 28.8543396 93.8427251 28.8543396 93.8427251 20.4996226 84.2653666 20.4996226 84.2653666 0"></polygon>
                <path d="M117.412116,29.669434 C115.156456,29.669434 113.194003,29.3569811 111.523059,28.7320755 C109.852116,28.1071698 108.459663,27.2518868 107.345701,26.1645283 C106.231173,25.0783019 105.403059,23.7945283 104.859663,22.3132075 C104.315701,20.8330189 104.044569,19.2362264 104.044569,17.5245283 L104.044569,0 L113.744191,0 L113.744191,16.4649057 C113.744191,17.850566 114.076456,18.930566 114.742682,19.7049057 C115.407776,20.4792453 116.352493,20.8664151 117.575135,20.8664151 C118.797776,20.8664151 119.741361,20.4792453 120.407588,19.7049057 C121.073248,18.930566 121.406078,17.850566 121.406078,16.4649057 L121.406078,0 L131.064946,0 L131.064946,17.5245283 C131.064946,19.2362264 130.772871,20.8330189 130.18872,22.3132075 C129.604003,23.7945283 128.741927,25.0783019 127.600795,26.1645283 C126.459663,27.2518868 125.039474,28.1071698 123.341927,28.7320755 C121.643814,29.3569811 119.66721,29.669434 117.412116,29.669434" id="Fill-4"></path>
            </g>
        </g>
    </g>
</svg>