<?xml version="1.0" encoding="UTF-8" standalone="no"?>
<svg width="22px" height="19px" viewBox="0 0 22 19" version="1.1" xmlns="http://www.w3.org/2000/svg" xmlns:xlink="http://www.w3.org/1999/xlink">
    <!-- Generator: Sketch 49.3 (51167) - http://www.bohemiancoding.com/sketch -->
    <title>Combined Shape</title>
    <desc>Created with Sketch.</desc>
    <defs></defs>
    <g id="Hankkeet" stroke="none" stroke-width="1" fill="none" fill-rule="evenodd">
        <path d="M11.83,0.42 C11.64,0.14 11.32,0 11,0 C10.68,0 10.36,0.14 10.17,0.43 L5.79,6.98 L1,6.98 C0.45,6.98 0,7.43 0,7.98 C0,8.07 0.01,8.16 0.04,8.25 L2.58,17.52 C2.81,18.36 3.58,18.98 4.5,18.98 L17.5,18.98 C18.42,18.98 19.19,18.36 19.43,17.52 L21.97,8.25 L22,7.98 C22,7.43 21.55,6.98 21,6.98 L16.21,6.98 L11.83,0.42 Z M8,6.98 L11,2.58 L14,6.98 L8,6.98 Z M12.4350771,17.3264697 L10.1467801,17.3264697 L10.1467801,12.7439534 L7.29998495,12.7439534 L11.3002486,8.70001505 L15.239985,12.7439534 L12.4350771,12.7439534 L12.4350771,17.3264697 Z" id="Combined-Shape" fill="#FFFFFF"></path>
    </g>
</svg>